<svg width="18" height="18" viewBox="0 0 18 18" fill="none" xmlns="http://www.w3.org/2000/svg">
<path d="M8.99998 0.5C4.30569 0.5 0.5 4.30565 0.5 9.00002C0.5 13.6944 4.30569 17.5 8.99998 17.5C13.6943 17.5 17.5 13.6944 17.5 9.00002C17.5 4.30565 13.6943 0.5 8.99998 0.5ZM2.76668 9.00002C2.76668 7.62815 3.21766 6.3626 3.97141 5.33192L12.6679 14.0286C11.6374 14.7826 10.3718 15.2334 9.00002 15.2334C5.56292 15.2334 2.76668 12.4371 2.76668 9.00002ZM14.1498 12.506L5.49374 3.8502C6.49376 3.1673 7.7007 2.76665 8.99998 2.76665C12.4371 2.76665 15.2333 5.56296 15.2333 9.00002C15.2333 10.2994 14.8327 11.5063 14.1498 12.506Z" fill="white"/>
</svg>
