<svg width="18" height="18" viewBox="0 0 18 18" fill="none" xmlns="http://www.w3.org/2000/svg">
<path d="M17.087 16.1697H1.82609V0.91516C1.82609 0.40973 1.4173 0 0.913043 0C0.408783 0 0 0.40973 0 0.91516V17.0848C0 17.5903 0.408783 18 0.913043 18H17.087C17.5912 18 18 17.5903 18 17.0848C18 16.5794 17.5912 16.1697 17.087 16.1697Z" fill="white"/>
<path d="M3.94184 12.266C4.18899 12.266 4.4353 12.166 4.6154 11.9689L7.15857 9.1857L11.7076 11.1882C12.0989 11.3605 12.5572 11.2376 12.8104 10.8923L15.601 7.08721L15.8354 8.72514C15.9008 9.18141 16.2912 9.51055 16.7381 9.5105C16.7813 9.5105 16.825 9.50742 16.8689 9.50109C17.368 9.42934 17.7146 8.96559 17.643 8.46528L17.0886 4.59097C17.017 4.09066 16.5542 3.74342 16.0552 3.81502L12.1899 4.3707C11.6908 4.44245 11.3441 4.9062 11.4157 5.40651C11.4873 5.90681 11.9501 6.25426 12.4492 6.18246L14.1808 5.93353L11.7723 9.2176L7.29411 7.24624C6.93615 7.08867 6.51777 7.17705 6.25366 7.46603L3.26879 10.7326C2.9282 11.1053 2.95356 11.6842 3.3254 12.0256C3.50066 12.1865 3.72161 12.266 3.94184 12.266Z" fill="white"/>
</svg>
