<svg width="20" height="20" viewBox="0 0 20 20" fill="none" xmlns="http://www.w3.org/2000/svg">
<path d="M12.3174 19.2699H15.7936C16.1134 19.2699 16.3729 19.0103 16.3729 18.6905V10.5793H18.6904C18.9248 10.5793 19.136 10.4382 19.2258 10.2216C19.3156 10.0052 19.266 9.75603 19.1 9.59033L10.4095 0.899785C10.1833 0.673542 9.81651 0.673542 9.59026 0.899785L0.899717 9.59033C0.734017 9.75603 0.684481 10.0052 0.773993 10.2216C0.863796 10.4382 1.07498 10.5793 1.30933 10.5793H3.62681V18.6905C3.62681 19.0103 3.88637 19.2699 4.20618 19.2699H7.6824C8.00221 19.2699 8.26177 19.0103 8.26177 18.6905V14.6349H11.738V18.6905C11.738 19.0103 11.9975 19.2699 12.3174 19.2699ZM7.6824 13.4762C7.36259 13.4762 7.10303 13.7357 7.10303 14.0555V18.1111H4.78555V9.99995C4.78555 9.68014 4.52599 9.42058 4.20618 9.42058H2.70793L9.99988 2.12892L17.2918 9.42058H15.7936C15.4738 9.42058 15.2142 9.68014 15.2142 9.99995V18.1111H12.8967V14.0555C12.8967 13.7357 12.6372 13.4762 12.3174 13.4762H7.6824Z" fill="#5E72E4" stroke="#5E72E4" stroke-width="0.5"/>
</svg>
