<svg width="20" height="20" viewBox="0 0 20 20" fill="none" xmlns="http://www.w3.org/2000/svg">
<path d="M9.99995 4.57332C9.76008 4.57332 9.53003 4.66861 9.36041 4.83822C9.1908 5.00784 9.09551 5.23789 9.09551 5.47776V14.5221C9.09551 14.762 9.1908 14.9921 9.36041 15.1617C9.53003 15.3313 9.76008 15.4266 9.99995 15.4266C10.2398 15.4266 10.4699 15.3313 10.6395 15.1617C10.8091 14.9921 10.9044 14.762 10.9044 14.5221V5.47776C10.9044 5.23789 10.8091 5.00784 10.6395 4.83822C10.4699 4.66861 10.2398 4.57332 9.99995 4.57332ZM5.47776 9.99995C5.23789 9.99995 5.00784 10.0952 4.83822 10.2649C4.66861 10.4345 4.57332 10.6645 4.57332 10.9044V14.5221C4.57332 14.762 4.66861 14.9921 4.83822 15.1617C5.00784 15.3313 5.23789 15.4266 5.47776 15.4266C5.71763 15.4266 5.94768 15.3313 6.11729 15.1617C6.28691 14.9921 6.3822 14.762 6.3822 14.5221V10.9044C6.3822 10.6645 6.28691 10.4345 6.11729 10.2649C5.94768 10.0952 5.71763 9.99995 5.47776 9.99995ZM14.5221 8.19107C14.2823 8.19107 14.0522 8.28636 13.8826 8.45598C13.713 8.62559 13.6177 8.85564 13.6177 9.09551V14.5221C13.6177 14.762 13.713 14.9921 13.8826 15.1617C14.0522 15.3313 14.2823 15.4266 14.5221 15.4266C14.762 15.4266 14.9921 15.3313 15.1617 15.1617C15.3313 14.9921 15.4266 14.762 15.4266 14.5221V9.09551C15.4266 8.85564 15.3313 8.62559 15.1617 8.45598C14.9921 8.28636 14.762 8.19107 14.5221 8.19107ZM16.331 0.955566H3.66888C2.94927 0.955566 2.25912 1.24143 1.75028 1.75028C1.24143 2.25912 0.955566 2.94927 0.955566 3.66888V16.331C0.955566 17.0506 1.24143 17.7408 1.75028 18.2496C2.25912 18.7585 2.94927 19.0443 3.66888 19.0443H16.331C17.0506 19.0443 17.7408 18.7585 18.2496 18.2496C18.7585 17.7408 19.0443 17.0506 19.0443 16.331V3.66888C19.0443 2.94927 18.7585 2.25912 18.2496 1.75028C17.7408 1.24143 17.0506 0.955566 16.331 0.955566ZM17.2355 16.331C17.2355 16.5709 17.1402 16.8009 16.9706 16.9706C16.8009 17.1402 16.5709 17.2355 16.331 17.2355H3.66888C3.42901 17.2355 3.19896 17.1402 3.02935 16.9706C2.85973 16.8009 2.76444 16.5709 2.76444 16.331V3.66888C2.76444 3.42901 2.85973 3.19896 3.02935 3.02935C3.19896 2.85973 3.42901 2.76444 3.66888 2.76444H16.331C16.5709 2.76444 16.8009 2.85973 16.9706 3.02935C17.1402 3.19896 17.2355 3.42901 17.2355 3.66888V16.331Z" fill="white"/>
</svg>
