<svg width="20" height="20" viewBox="0 0 20 20" fill="none" xmlns="http://www.w3.org/2000/svg">
<path d="M8.18657 12.5635C8.27311 12.5635 8.34327 12.6336 8.34327 12.7202V18.1604C8.34327 18.2469 8.27311 18.3171 8.18657 18.3171H1.83968C1.75314 18.3171 1.68298 18.2469 1.68298 18.1604V12.7202C1.68298 12.6336 1.75314 12.5635 1.83968 12.5635H8.18657ZM18.1603 8.02999C18.2468 8.02999 18.317 8.10015 18.317 8.18669V18.1604C18.317 18.2469 18.2468 18.3171 18.1603 18.3171H11.8134C11.7268 18.3171 11.6567 18.2469 11.6567 18.1604V8.18669C11.6567 8.10015 11.7268 8.02999 11.8134 8.02999H18.1603ZM8.18657 1.68311C8.27311 1.68311 8.34327 1.75326 8.34327 1.8398V9.09339C8.34327 9.17993 8.27311 9.25009 8.18657 9.25009H1.83968C1.75314 9.25009 1.68298 9.17993 1.68298 9.09339V1.8398C1.68298 1.75326 1.75314 1.68311 1.83968 1.68311H8.18657ZM18.1603 1.68311C18.2468 1.68311 18.317 1.75326 18.317 1.8398V4.5599C18.317 4.64644 18.2468 4.7166 18.1603 4.7166H11.8134C11.7268 4.7166 11.6567 4.64644 11.6567 4.5599V1.8398C11.6567 1.75326 11.7268 1.68311 11.8134 1.68311H18.1603Z" stroke="white" stroke-width="1.5"/>
</svg>
