<svg width="22" height="24" viewBox="0 0 22 24" fill="none" xmlns="http://www.w3.org/2000/svg">
<path d="M10.1574 15.0319C10.1977 15.4213 10.5265 15.7113 10.9096 15.7113C10.9356 15.7113 10.9619 15.7099 10.9883 15.7072C11.4042 15.6642 11.7065 15.2922 11.6635 14.8763L11.3144 11.4979C11.2714 11.0821 10.8992 10.7801 10.4835 10.8227C10.0676 10.8657 9.76527 11.2377 9.80827 11.6536L10.1574 15.0319Z" fill="white"/>
<path d="M14.8953 15.7073C14.9218 15.71 14.948 15.7113 14.9741 15.7113C15.3573 15.7113 15.6859 15.4214 15.7262 15.032L16.0753 11.6536C16.1183 11.2376 15.816 10.8656 15.4001 10.8227C14.9839 10.7802 14.6121 11.0821 14.5691 11.4979L14.22 14.8763C14.177 15.2923 14.4793 15.6643 14.8953 15.7073Z" fill="white"/>
<path d="M9.0333 18.998C7.74111 18.998 6.68988 20.0493 6.68988 21.3415C6.68988 22.634 7.74111 23.6855 9.0333 23.6855C10.3255 23.6855 11.3768 22.634 11.3768 21.3415C11.3768 20.0493 10.3255 18.998 9.0333 18.998ZM9.0333 22.1712C8.57602 22.1712 8.20404 21.799 8.20404 21.3414C8.20404 20.8841 8.57602 20.5121 9.0333 20.5121C9.49057 20.5121 9.86265 20.8841 9.86265 21.3414C9.86265 21.799 9.49057 22.1712 9.0333 22.1712Z" fill="white"/>
<path d="M16.8505 18.998C15.5583 18.998 14.507 20.0493 14.507 21.3415C14.507 22.634 15.5582 23.6855 16.8505 23.6855C18.1428 23.6855 19.1942 22.634 19.1942 21.3415C19.1942 20.0493 18.1428 18.998 16.8505 18.998ZM16.8505 22.1712C16.3932 22.1712 16.0211 21.799 16.0211 21.3414C16.0211 20.8841 16.3932 20.5121 16.8505 20.5121C17.3078 20.5121 17.68 20.8841 17.68 21.3414C17.68 21.799 17.3079 22.1712 16.8505 22.1712Z" fill="white"/>
<path d="M21.3789 8.29732C21.2356 8.11189 21.0144 8.00327 20.78 8.00327H5.68938L5.05565 5.56638C4.96884 5.23276 4.66762 4.99988 4.3229 4.99988H1.21997C0.801861 4.99988 0.462891 5.33885 0.462891 5.75696C0.462891 6.17507 0.801861 6.51404 1.21997 6.51404H3.73752L4.3661 8.93125C4.36923 8.94478 4.37276 8.9582 4.3766 8.97143L6.71416 17.9601C6.80098 18.2937 7.10219 18.5266 7.44692 18.5266H18.4371C18.7818 18.5266 19.0831 18.2937 19.1699 17.9601L21.5128 8.95083C21.5717 8.72421 21.5223 8.48286 21.3789 8.29732ZM17.8517 17.0126H8.03229L6.08316 9.51753H19.801L17.8517 17.0126Z" fill="white"/>
<path d="M9.96989 5.64954C10.1177 5.79722 10.3114 5.87111 10.5051 5.87111C10.6989 5.87111 10.8927 5.79712 11.0406 5.64924C11.3362 5.35347 11.3361 4.87409 11.0403 4.57852L8.65933 2.19866C8.36356 1.9031 7.88428 1.9032 7.58861 2.19886C7.29305 2.49463 7.29315 2.97401 7.58882 3.26958L9.96989 5.64954Z" fill="white"/>
<path d="M15.3822 5.87118C15.5761 5.87118 15.77 5.79719 15.9179 5.64921L18.2953 3.26965C18.5909 2.97388 18.5906 2.4945 18.2948 2.19904C17.999 1.90347 17.5196 1.90377 17.2242 2.19954L14.8467 4.5791C14.5512 4.87486 14.5515 5.35425 14.8472 5.64981C14.995 5.79739 15.1886 5.87118 15.3822 5.87118Z" fill="white"/>
<path d="M12.9426 5.19129C12.9427 5.19129 12.9427 5.19129 12.9428 5.19129C13.3608 5.19129 13.6998 4.85242 13.6999 4.43441L13.7007 1.07186C13.7008 0.653748 13.3619 0.314676 12.9438 0.314575C12.9437 0.314575 12.9437 0.314575 12.9437 0.314575C12.5256 0.314575 12.1866 0.653445 12.1865 1.07145L12.1857 4.43401C12.1856 4.85212 12.5245 5.19119 12.9426 5.19129Z" fill="white"/>
</svg>
