<svg width="22" height="20" viewBox="0 0 22 20" fill="none" xmlns="http://www.w3.org/2000/svg">
<path fill-rule="evenodd" clip-rule="evenodd" d="M21.2461 13.6835L16.3084 1.76721C15.9997 1.02057 15.273 0.562635 14.5065 0.542725C14.2476 0.542725 13.9789 0.582545 13.72 0.692052L6.3831 3.72836C5.63646 4.03697 5.17853 4.75374 5.15862 5.52029C5.14866 5.78908 5.19844 6.05786 5.30794 6.3167L10.2457 18.233C10.5543 18.9896 11.291 19.4475 12.0675 19.4575C12.3263 19.4575 12.5851 19.4077 12.834 19.3081L20.161 16.2718C21.1764 15.8537 21.6642 14.689 21.2461 13.6835ZM1.83358 17.3669L3.16757 17.9244V8.93494L0.74847 14.7686C0.34031 15.7841 0.828111 16.9488 1.83358 17.3669ZM7.14963 5.56015L12.0874 17.4665L19.4044 14.4302L14.4766 2.53379H14.4667L7.14963 5.56015ZM10.2655 5.76917C9.71573 5.76917 9.27003 6.21487 9.27003 6.76468C9.27003 7.31448 9.71573 7.76019 10.2655 7.76019C10.8153 7.76019 11.2611 7.31448 11.2611 6.76468C11.2611 6.21487 10.8153 5.76917 10.2655 5.76917ZM7.1596 19.4574C6.06453 19.4574 5.16857 18.5614 5.16857 17.4664V11.1548L8.60309 19.4574H7.1596Z" fill="white"/>
</svg>
