<svg width="16" height="17" viewBox="0 0 16 17" fill="none" xmlns="http://www.w3.org/2000/svg">
<path fill-rule="evenodd" clip-rule="evenodd" d="M15.2 0.833374H0.8C0.355556 0.833374 0 1.18893 0 1.63337V16.0334C0 16.3889 0.355556 16.8334 0.8 16.8334H15.2C15.5556 16.8334 16 16.3889 16 16.0334V1.63337C16 1.18893 15.5556 0.833374 15.2 0.833374ZM5.33338 4.38884H3.5556V6.16662H5.33338V4.38884ZM12.4445 4.38884H7.11115V6.16662H12.4445V4.38884ZM12.4445 7.94457H7.11115V9.72235H12.4445V7.94457ZM7.11115 11.4999H12.4445V13.2777H7.11115V11.4999ZM3.5556 7.94457H5.33338V9.72235H3.5556V7.94457ZM5.33338 11.4999H3.5556V13.2777H5.33338V11.4999ZM1.77771 15.0556H14.2222V2.61111H1.77771V15.0556Z" fill="white"/>
</svg>
