<svg width="18" height="19" viewBox="0 0 18 19" fill="none" xmlns="http://www.w3.org/2000/svg">
<path fill-rule="evenodd" clip-rule="evenodd" d="M15.9414 9.83337C15.9414 10.1394 15.9136 10.4274 15.8766 10.7154L17.8289 12.2004C18.0047 12.3354 18.051 12.5784 17.9399 12.7764L16.0894 15.8904C16.0062 16.0344 15.8489 16.1154 15.6916 16.1154C15.6361 16.1154 15.5806 16.1064 15.525 16.0884L13.2212 15.1884C12.74 15.5394 12.2219 15.8454 11.6575 16.0704L11.3059 18.4554C11.2782 18.6714 11.0839 18.8334 10.8525 18.8334H7.15155C6.92024 18.8334 6.72593 18.6714 6.69818 18.4554L6.34658 16.0704C5.78218 15.8454 5.26404 15.5484 4.78291 15.1884L2.47905 16.0884C2.43278 16.1064 2.37727 16.1154 2.32175 16.1154C2.15521 16.1154 1.99792 16.0344 1.91464 15.8904L0.0641489 12.7764C-0.0468808 12.5784 -0.00061843 12.3354 0.175179 12.2004L2.12745 10.7154C2.09044 10.4274 2.06268 10.1304 2.06268 9.83337C2.06268 9.53637 2.09044 9.23937 2.12745 8.95137L0.175179 7.46637C-0.00061843 7.33137 -0.0561333 7.08837 0.0641489 6.89037L1.91464 3.77637C1.99792 3.63237 2.15521 3.55137 2.3125 3.55137C2.36802 3.55137 2.42353 3.56037 2.47905 3.57837L4.78291 4.47837C5.26404 4.12737 5.78218 3.82137 6.34658 3.59637L6.69818 1.21137C6.72593 0.995374 6.92024 0.833374 7.15155 0.833374H10.8525C11.0839 0.833374 11.2782 0.995374 11.3059 1.21137L11.6575 3.59637C12.2219 3.82137 12.74 4.11837 13.2212 4.47837L15.525 3.57837C15.5713 3.56037 15.6268 3.55137 15.6823 3.55137C15.8489 3.55137 16.0062 3.63237 16.0894 3.77637L17.9399 6.89037C18.051 7.08837 18.0047 7.33137 17.8289 7.46637L15.8766 8.95137C15.9136 9.23937 15.9414 9.52737 15.9414 9.83337ZM14.0909 9.83341C14.0909 9.64441 14.0817 9.45541 14.0446 9.17641L13.9151 8.15941L14.7386 7.52941L15.7286 6.76441L15.0809 5.67541L13.9059 6.13441L12.9251 6.52141L12.0831 5.89141C11.713 5.62141 11.3429 5.41441 10.9451 5.25241L9.9643 4.86541L9.81626 3.84841L9.64046 2.63341H8.35437L8.16932 3.84841L8.02128 4.86541L7.04051 5.25241C6.66116 5.40541 6.28181 5.62141 5.88396 5.90941L5.05123 6.52141L4.08897 6.14341L2.91391 5.68441L2.26624 6.77341L3.2655 7.52941L4.08897 8.15941L3.95944 9.17641C3.93168 9.44641 3.91318 9.65341 3.91318 9.83341C3.91318 10.0134 3.93168 10.2204 3.95944 10.4994L4.08897 11.5164L3.2655 12.1464L2.26624 12.9024L2.91391 13.9914L4.08897 13.5324L5.06974 13.1454L5.91171 13.7754C6.28181 14.0454 6.65191 14.2524 7.04977 14.4144L8.03053 14.8014L8.17857 15.8184L8.35437 17.0334H9.64971L9.83476 15.8184L9.9828 14.8014L10.9636 14.4144C11.3429 14.2614 11.7223 14.0454 12.1201 13.7574L12.9528 13.1454L13.9151 13.5234L15.0902 13.9824L15.7378 12.8934L14.7386 12.1374L13.9151 11.5074L14.0446 10.4904C14.0724 10.2204 14.0909 10.0224 14.0909 9.83341ZM9.00202 6.23335C6.95722 6.23335 5.30103 7.84435 5.30103 9.83335C5.30103 11.8223 6.95722 13.4333 9.00202 13.4333C11.0468 13.4333 12.703 11.8223 12.703 9.83335C12.703 7.84435 11.0468 6.23335 9.00202 6.23335ZM7.15149 9.83351C7.15149 10.8235 7.98421 11.6335 9.00199 11.6335C10.0198 11.6335 10.8525 10.8235 10.8525 9.83351C10.8525 8.84351 10.0198 8.03351 9.00199 8.03351C7.98421 8.03351 7.15149 8.84351 7.15149 9.83351Z" fill="white"/>
</svg>
