<svg width="18" height="20" viewBox="0 0 18 20" fill="none" xmlns="http://www.w3.org/2000/svg">
<path d="M17.9523 18.1752L15.6444 7.21291C15.5598 6.81077 15.205 6.52285 14.7939 6.52285H13.3453V5.07498C13.3453 2.67873 11.3957 0.729126 8.99943 0.729126C6.60312 0.729126 4.65357 2.67873 4.65357 5.07498V6.52279H3.20495C2.79389 6.52279 2.4391 6.81072 2.35444 7.21285L0.0366512 18.2224C-0.0172954 18.4787 0.0471971 18.7457 0.212224 18.9492C0.377308 19.1526 0.625254 19.2707 0.887164 19.2707H17.1117C17.112 19.2707 17.1125 19.2707 17.1129 19.2707C17.5929 19.2707 17.982 18.8815 17.982 18.4015C17.982 18.3232 17.9717 18.2474 17.9523 18.1752ZM6.39191 5.07498C6.39191 3.6372 7.56165 2.46747 8.99943 2.46747C10.4373 2.46747 11.6069 3.6372 11.6069 5.07498V6.52279H6.39191V5.07498ZM13.8462 8.26113C13.4324 10.5606 11.4093 12.3173 8.99943 12.3173C6.58968 12.3173 4.56648 10.5606 4.1527 8.26113H13.8462ZM1.95839 17.5323L3.34889 10.9275C3.61897 11.3575 3.93998 11.7596 4.30944 12.1257C5.35731 13.164 6.69045 13.8127 8.13026 13.9993V14.9248C8.13026 15.4048 8.51941 15.794 8.99943 15.794C9.47944 15.794 9.8686 15.4048 9.8686 14.9248V13.9993C11.3085 13.8127 12.6415 13.164 13.6894 12.1257C14.0589 11.7597 14.3799 11.3575 14.65 10.9275L16.0405 17.5323H1.95839Z" fill="white"/>
</svg>
